<?xml version="1.0" encoding="UTF-8" standalone="no"?>
<!DOCTYPE svg PUBLIC "-//W3C//DTD SVG 1.1//EN" "http://www.w3.org/Graphics/SVG/1.1/DTD/svg11.dtd">
<svg width="100%" height="100%" viewBox="0 0 1650 750" version="1.1" xmlns="http://www.w3.org/2000/svg" xmlns:xlink="http://www.w3.org/1999/xlink" style="fill-rule:evenodd;">
    <path d="M 150,0 C 232.79,0 300,67.2125 300,150 C 300,232.79 232.79,300 150,300 C 67.21,300 0,232.79 0,150 C 0,67.21 67.21,0 150,0 Z M 150,75 C 191.395,75 225,108.605 225,150 C 225,191.395 191.395,225 150,225 C 108.605,225 75,191.395 75,150 C 75,108.605 108.605,75 150,75 Z" />
    <g transform="matrix(1,0,0,1,450,0)"><path d="M 150,0 C 232.79,0 300,67.2125 300,150 C 300,232.79 232.79,300 150,300 C 67.21,300 0,232.79 0,150 C 0,67.21 67.21,0 150,0 Z M 150,75 C 191.395,75 225,108.605 225,150 C 225,191.395 191.395,225 150,225 C 108.605,225 75,191.395 75,150 C 75,108.605 108.605,75 150,75 Z" /></g>
    <circle cx="1050" cy="150" r="150"/>
    <g transform="matrix(1,0,0,1,1350,0)"><path d="M 150,0 C 232.79,0 300,67.2125 300,150 C 300,232.79 232.79,300 150,300 C 67.21,300 0,232.79 0,150 C 0,67.21 67.21,0 150,0 Z M 150,75 C 191.395,75 225,108.605 225,150 C 225,191.395 191.395,225 150,225 C 108.605,225 75,191.395 75,150 C 75,108.605 108.605,75 150,75 Z" /></g>
    <g transform="matrix(1,0,0,1,0,450)"><path d="M 150,0 C 232.79,0 300,67.2125 300,150 C 300,232.79 232.79,300 150,300 C 67.21,300 0,232.79 0,150 C 0,67.21 67.21,0 150,0 Z M 150,75 C 191.395,75 225,108.605 225,150 C 225,191.395 191.395,225 150,225 C 108.605,225 75,191.395 75,150 C 75,108.605 108.605,75 150,75 Z" /></g>
    <circle cx="600" cy="600" r="150"/>
    <g transform="matrix(1,0,0,1,900,450)"><path d="M 150,0 C 232.79,0 300,67.2125 300,150 C 300,232.79 232.79,300 150,300 C 67.21,300 0,232.79 0,150 C 0,67.21 67.21,0 150,0 Z M 150,75 C 191.395,75 225,108.605 225,150 C 225,191.395 191.395,225 150,225 C 108.605,225 75,191.395 75,150 C 75,108.605 108.605,75 150,75 Z" /></g>
    <g transform="matrix(1,0,0,1,1350,450)"><path d="M 150,0 C 232.79,0 300,67.2125 300,150 C 300,232.79 232.79,300 150,300 C 67.21,300 0,232.79 0,150 C 0,67.21 67.21,0 150,0 Z M 150,75 C 191.395,75 225,108.605 225,150 C 225,191.395 191.395,225 150,225 C 108.605,225 75,191.395 75,150 C 75,108.605 108.605,75 150,75 Z" /></g>
</svg>