<?xml version="1.0" encoding="UTF-8" standalone="no"?>
<!DOCTYPE svg PUBLIC "-//W3C//DTD SVG 1.1//EN" "http://www.w3.org/Graphics/SVG/1.1/DTD/svg11.dtd">
<svg width="100%" height="100%" viewBox="0 0 2851 1351" version="1.1" xmlns="http://www.w3.org/2000/svg" xmlns:xlink="http://www.w3.org/1999/xlink">
    <circle fill="white" cx="1800" cy="300" r="300" />
    <circle fill="white" cx="1050" cy="1050" r="300" />
    <path fill="white" d="M 2100.49,750
            C 2183.06,749.73 2250,682.62 2250,600
            L 2250,300
            L 2250,299.03
            C 2250.54,133.89 2384.76,0 2550,0
            C 2715.24,0 2849.46,133.89 2850,299.03
            L 2850,300
            L 2850,1050
            L 2850,1050.97
            C 2849.46,1216.11 2715.24,1350 2550,1350
            L 1800,1350
            C 1634.43,1350 1500,1215.58 1500,1050
            C 1500,884.42 1634.43,750 1800,750
            L 2100,750
            L 2100.49,750 Z

            M 2400,600.97
            C 2399.46,766.11 2265.24,900 2100,900
            L 1800,900
            C 1717.21,900 1650,967.21 1650,1050
            C 1650,1132.79 1717.21,1200 1800,1200
            L 2550,1200
            C 2632.79,1200 2700,1132.79 2700,1050
            L 2700,300
            L 2700,299.52
            C 2699.73,216.94 2632.62,150 2550,150
            C 2467.21,150 2400,217.21 2400,300
            L 2400,600
            L 2400,600.97 Z" />
    <g transform="matrix(-1,0,0,-1,2851,1350)">
        <path fill="white" d="M 2100.49,750
                C 2183.06,749.73 2250,682.62 2250,600
                L 2250,300
                L 2250,299.03
                C 2250.54,133.89 2384.76,0 2550,0
                C 2715.24,0 2849.46,133.89 2850,299.03
                L 2850,300
                L 2850,1050
                L 2850,1050.97
                C 2849.46,1216.11 2715.24,1350 2550,1350
                L 1800,1350
                C 1634.43,1350 1500,1215.58 1500,1050
                C 1500,884.42 1634.43,750 1800,750
                L 2100,750
                L 2100.49,750 Z

                M 2400,600.97
                C 2399.46,766.11 2265.24,900 2100,900
                L 1800,900
                C 1717.21,900 1650,967.21 1650,1050
                C 1650,1132.79 1717.21,1200 1800,1200
                L 2550,1200
                C 2632.79,1200 2700,1132.79 2700,1050
                L 2700,300
                L 2700,299.52
                C 2699.73,216.94 2632.62,150 2550,150
                C 2467.21,150 2400,217.21 2400,300
                L 2400,600
                L 2400,600.97 Z" />
    </g>
</svg>